<svg width="256" height="256" viewBox="0 0 256 256" fill="none" xmlns="http://www.w3.org/2000/svg">
  <defs>
    <linearGradient id="bg" x1="24" y1="20" x2="228" y2="236" gradientUnits="userSpaceOnUse">
      <stop stop-color="#8B5CF6"/>
      <stop offset="1" stop-color="#22C55E"/>
    </linearGradient>
    <linearGradient id="mark" x1="78" y1="56" x2="176" y2="188" gradientUnits="userSpaceOnUse">
      <stop stop-color="#F8FAFC"/>
      <stop offset="1" stop-color="#DCFCE7"/>
    </linearGradient>
  </defs>
  <rect x="16" y="16" width="224" height="224" rx="56" fill="#09111F"/>
  <rect x="20" y="20" width="216" height="216" rx="52" fill="url(#bg)"/>
  <rect x="30" y="30" width="196" height="196" rx="42" fill="#09111F" fill-opacity="0.18"/>
  <path d="M86 64C86 57.3726 91.3726 52 98 52H116C122.627 52 128 57.3726 128 64V160H174C180.627 160 186 165.373 186 172V188C186 194.627 180.627 200 174 200H98C91.3726 200 86 194.627 86 188V64Z" fill="url(#mark)"/>
  <path d="M86 52H128V68H102V188H86V52Z" fill="#FFFFFF" fill-opacity="0.18"/>
  <circle cx="176" cy="78" r="10" fill="#DCFCE7" fill-opacity="0.92"/>
</svg>
